<svg xmlns="http://www.w3.org/2000/svg" version="1.1" xmlns:xlink="http://www.w3.org/1999/xlink" width="46" height="46"><svg width="46" height="46" viewBox="0 0 46 46" fill="none" xmlns="http://www.w3.org/2000/svg">
<path d="M46 34V12C46 5.37258 40.6274 0 34 0L12 0C5.37259 0 0 5.37258 0 12V34C0 40.6274 5.37259 46 12 46H34C40.6274 46 46 40.6274 46 34Z" fill="black"></path>
<path d="M18.1913 33.6687C15.4588 33.6687 12.8383 32.5832 10.9062 30.6511C8.97412 28.719 7.88867 26.0985 7.88867 23.3661C7.88867 20.6337 8.97412 18.0131 10.9062 16.081C12.8383 14.1489 15.4588 13.0635 18.1913 13.0635V18.0437C17.1386 18.0437 16.1096 18.3559 15.2343 18.9407C14.3591 19.5255 13.6769 20.3568 13.2741 21.3293C12.8712 22.3018 12.7658 23.372 12.9712 24.4044C13.1765 25.4368 13.6834 26.3852 14.4278 27.1295C15.1721 27.8739 16.1205 28.3808 17.1529 28.5862C18.1854 28.7915 19.2555 28.6861 20.228 28.2833C21.2006 27.8804 22.0318 27.1983 22.6166 26.323C23.2015 25.4478 23.5136 24.4187 23.5136 23.3661H28.4939C28.49 26.0973 27.4033 28.7155 25.472 30.6468C23.5407 32.5781 20.9225 33.6648 18.1913 33.6687Z" fill="white"></path>
<path d="M28.7821 33.6695V28.6893C29.8347 28.6893 30.8638 28.3772 31.739 27.7923C32.6143 27.2075 33.2965 26.3763 33.6993 25.4037C34.1021 24.4312 34.2075 23.361 34.0022 22.3286C33.7968 21.2962 33.2899 20.3478 32.5456 19.6035C31.8012 18.8591 30.8529 18.3522 29.8204 18.1469C28.788 17.9415 27.7178 18.0469 26.7453 18.4497C25.7728 18.8526 24.9415 19.5348 24.3567 20.41C23.7719 21.2853 23.4597 22.3143 23.4597 23.367H18.4844C18.4842 21.6139 18.9314 19.8899 19.7835 18.3579C20.6357 16.8259 21.8647 15.5368 23.3541 14.6123C24.8436 13.6879 26.5443 13.1589 28.2953 13.0752C30.0464 12.9916 31.7898 13.3561 33.3606 14.1343C34.9314 14.9125 36.2777 16.0787 37.272 17.5224C38.2663 18.9662 38.8758 20.6398 39.0427 22.3848C39.2097 24.1299 38.9286 25.8886 38.2261 27.4947C37.5236 29.1008 36.4229 30.5011 35.0281 31.5631C33.2366 32.9372 31.0399 33.678 28.7821 33.6695Z" fill="white"></path>
</svg><style>@media (prefers-color-scheme: light) { :root { filter: none; } }
@media (prefers-color-scheme: dark) { :root { filter: none; } }
</style></svg>